
nColumns=19
nRows=43
DataType=double
version=3
OpenSimVersion=4.4-2022-10-11-798caa840
endheader
time	ground_force_calcn_r_vx	ground_force_calcn_r_vy	ground_force_calcn_r_vz	ground_force_calcn_r_px	ground_force_calcn_r_py	ground_force_calcn_r_pz	ground_force_calcn_r_mx	ground_force_calcn_r_my	ground_force_calcn_r_mz	ground_force_calcn_l_vx	ground_force_calcn_l_vy	ground_force_calcn_l_vz	ground_force_calcn_l_px	ground_force_calcn_l_py	ground_force_calcn_l_pz	ground_force_calcn_l_mx	ground_force_calcn_l_my	ground_force_calcn_l_mz
3.35	-2.54054	308.54	-29.2229	-0.230243	0	-0.383839	0.00177855	-0.215998	0.0204579	-3.09947	150.338	22.9225	-0.197477	0	-0.754628	-0.0102784	0.498548	0.076015
3.36	-1.0081	312.477	-29.6117	-0.233208	0	-0.384478	0.000809771	-0.251002	0.0237861	-2.66642	148.734	22.8975	-0.198578	0	-0.7544459999999999	-0.0100359	0.559808	0.08618190000000001
3.37	0.631526	316.877	-29.9829	-0.236148	0	-0.385126	-0.000577826	-0.289932	0.0274334	-2.22676	147.521	22.9857	-0.199775	0	-0.754349	-0.009588899999999999	0.635256	0.098981
3.38	2.35246	321.658	-30.3295	-0.239013	0	-0.385778	-0.00241814	-0.330638	0.0311762	-1.79186	146.716	23.1966	-0.201071	0	-0.754338	-0.00884335	0.724089	0.114482
3.39	4.1298	326.745	-30.6468	-0.241757	0	-0.386424	-0.00469665	-0.371594	0.0348534	-1.37175	146.332	23.5368	-0.202464	0	-0.754416	-0.00773563	0.8252	0.13273
3.4	5.94265	332.081	-30.9366	-0.244333	0	-0.38705	-0.00737374	-0.412052	0.0383867	-0.977319	146.37	24.0085	-0.203944	0	-0.7545770000000001	-0.00625844	0.937311	0.153743
3.41	7.76751	337.647	-31.2122	-0.246702	0	-0.387646	-0.0104017	-0.452154	0.0417973	-0.622653	146.836	24.6102	-0.205497	0	-0.754816	-0.00449073	1.05902	0.177495
3.42	9.573090000000001	343.467	-31.4969	-0.248822	0	-0.388194	-0.0137369	-0.492857	0.0451964	-0.325415	147.74	25.339	-0.207095	0	-0.755132	-0.00261846	1.1888	0.203892
3.43	11.3225	349.586	-31.817	-0.250658	0	-0.388677	-0.0173535	-0.535794	0.0487644	-0.105205	149.101	26.19	-0.208705	0	-0.755522	-0.000934842	1.3249	0.232722
3.44	12.9781	356.012	-32.1929	-0.252187	0	-0.389084	-0.0212512	-0.582959	0.0527149	0.0175405	150.941	27.1566	-0.210283	0	-0.755986	0.000170284	1.46534	0.263637
3.45	14.5034	362.694	-32.6358	-0.253396	0	-0.389405	-0.0254424	-0.636249	0.0572509	0.0207735	153.286	28.2331	-0.211782	0	-0.756529	0.000217886	1.60777	0.296127
3.46	15.8645	369.531	-33.1476	-0.254288	0	-0.389638	-0.0299274	-0.697098	0.062531	-0.118084	156.156	29.4135	-0.213146	0	-0.757152	-0.00132291	1.74943	0.329523
3.47	17.0305	376.395	-33.7183	-0.254878	0	-0.389786	-0.0346628	-0.766092	0.0686281	-0.419419	159.549	30.6894	-0.214321	0	-0.757852	-0.00496195	1.88756	0.363072
3.48	17.9761	383.149	-34.3258	-0.255186	0	-0.389856	-0.0395459	-0.842892	0.0755136	-0.898424	163.441	32.0467	-0.215266	0	-0.758622	-0.0111018	2.01965	0.396001
3.49	18.6876	389.691	-34.9412	-0.25524	0	-0.38986	-0.0444318	-0.926532	0.08307639999999999	-1.56217	167.778	33.4655	-0.215953	0	-0.759445	-0.0199597	2.14369	0.427586
3.5	19.1675	395.97	-35.532	-0.255071	0	-0.389811	-0.0491672	-1.01572	0.0911443	-2.40673	172.484	34.9198	-0.216373	0	-0.760297	-0.0315105	2.25828	0.457194
3.51	19.4354	401.977	-36.0672	-0.254712	0	-0.389722	-0.053626	-1.10913	0.0995163	-3.41344	177.456	36.3761	-0.216539	0	-0.761155	-0.0454462	2.36262	0.484307
3.52	19.5257	407.729	-36.5222	-0.254197	0	-0.389606	-0.0577342	-1.20558	0.10799	-4.54762	182.559	37.7928	-0.216478	0	-0.761988	-0.0611939	2.45656	0.508551
3.53	19.484	413.247	-36.8812	-0.253562	0	-0.389474	-0.0614836	-1.30404	0.116382	-5.76111	187.646	39.1251	-0.216228	0	-0.7627699999999999	-0.0780058	2.54074	0.529756
3.54	19.3613	418.556	-37.1413	-0.252837	0	-0.389335	-0.064931	-1.40369	0.124559	-6.99643	192.566	40.3275	-0.215835	0	-0.763475	-0.09506249999999999	2.61645	0.547941
3.55	19.2062	423.679	-37.3111	-0.252054	0	-0.389193	-0.06817479999999999	-1.5039	0.132441	-8.19172	197.172	41.3567	-0.215348	0	-0.764086	-0.111569	2.68543	0.563266
3.56	19.056	428.637	-37.4088	-0.251234	0	-0.389052	-0.07131410000000001	-1.6041	0.139996	-9.285740000000001	201.337	42.176	-0.214813	0	-0.764588	-0.126822	2.74979	0.576027
3.57	18.9329	433.444	-37.4594	-0.250398	0	-0.388912	-0.0744147	-1.70363	0.147232	-10.223	204.964	42.7601	-0.214276	0	-0.764971	-0.140249	2.8119	0.586626
3.58	18.8439	438.116	-37.4909	-0.249556	0	-0.388773	-0.0774932	-1.80169	0.154177	-10.9581	207.999	43.0977	-0.213776	0	-0.765232	-0.151411	2.87398	0.595492
3.59	18.7827	442.656	-37.529	-0.248717	0	-0.388635	-0.080508	-1.89735	0.16086	-11.4591	210.422	43.1915	-0.213346	0	-0.765368	-0.15999	2.93788	0.603031
3.6	18.7308	447.056	-37.5938	-0.247888	0	-0.388498	-0.08335579999999999	-1.98949	0.1673	-11.7094	212.232	43.0551	-0.213009	0	-0.7653799999999999	-0.165791	3.00496	0.60961
3.61	18.6612	451.29	-37.6961	-0.247068	0	-0.388363	-0.08587590000000001	-2.07677	0.173472	-11.7073	213.438	42.7088	-0.212779	0	-0.765272	-0.168729	3.07613	0.6155310000000001
3.62	18.5409	455.321	-37.8357	-0.24626	0	-0.388234	-0.0878586	-2.1576	0.17929	-11.4653	214.059	42.1776	-0.212661	0	-0.765049	-0.168812	3.15175	0.621011
3.63	18.3364	459.107	-37.9996	-0.24546	0	-0.388116	-0.0890726	-2.2302	0.18459	-11.0075	214.129	41.4899	-0.212651	0	-0.764719	-0.166126	3.23165	0.6261679999999999
3.64	18.0219	462.616	-38.1635	-0.244665	0	-0.388017	-0.0893172	-2.29274	0.189139	-10.3662	213.693	40.6748	-0.212743	0	-0.764293	-0.16082	3.3152	0.631022
3.65	17.5858	465.826	-38.2969	-0.243876	0	-0.387944	-0.0884731	-2.34354	0.192669	-9.57925	212.807	39.76	-0.212924	0	-0.763779	-0.153113	3.40145	0.635514
3.66	17.0341	468.734	-38.3697	-0.243092	0	-0.387902	-0.08653180000000001	-2.38113	0.194915	-8.68727	211.537	38.7706	-0.213178	0	-0.763189	-0.143289	3.48912	0.639486
3.67	16.3876	471.354	-38.3556	-0.242314	0	-0.3879	-0.08359560000000001	-2.40444	0.195657	-7.73177	209.956	37.7286	-0.213483	0	-0.762536	-0.131706	3.57646	0.642682
3.68	15.6761	473.717	-38.2354	-0.241544	0	-0.387941	-0.07985200000000001	-2.41305	0.194766	-6.7534	208.134	36.6531	-0.213816	0	-0.761837	-0.118807	3.66152	0.644805
3.69	14.9302	475.872	-37.9996	-0.240781	0	-0.388028	-0.07552879999999999	-2.40734	0.192232	-5.79049	206.137	35.56	-0.214153	0	-0.761105	-0.105116	3.74204	0.645528
3.7	14.1746	477.885	-37.6479	-0.240027	0	-0.388157	-0.0708474	-2.38855	0.188171	-4.87717	204.026	34.4631	-0.214469	0	-0.760355	-0.0912152	3.8158	0.644546
3.71	13.4242	479.827	-37.1901	-0.239278	0	-0.388324	-0.06599099999999999	-2.35874	0.18282	-4.0424	201.859	33.3735	-0.214743	0	-0.759598	-0.07771840000000001	3.88091	0.641633
3.72	12.6866	481.771	-36.6448	-0.238533	0	-0.388525	-0.0611078	-2.32056	0.176508	-3.30911	199.693	32.3	-0.214958	0	-0.758847	-0.0652244	3.93606	0.636652
3.73	11.9678	483.775	-36.0366	-0.237792	0	-0.38875	-0.0563256	-2.27685	0.169603	-2.69329	197.584	31.2505	-0.215102	0	-0.758114	-0.0542591	3.98054	0.629573
3.74	11.2764	485.884	-35.3916	-0.237054	0	-0.38899	-0.0517617	-2.23033	0.162457	-2.20401	195.588	30.2322	-0.215168	0	-0.757406	-0.0452354	4.01427	0.620491
3.75	10.6246	488.116	-34.7338	-0.236322	0	-0.389238	-0.0475276	-2.18351	0.155376	-1.84473	193.75	29.2523	-0.215153	0	-0.756733	-0.0384436	4.03768	0.60961
3.76	10.0253	490.459	-34.0828	-0.2356	0	-0.389487	-0.0437081	-2.1383	0.148594	-1.61461	192.102	28.3157	-0.215062	0	-0.756103	-0.0340524	4.05148	0.597184
3.77	9.48583	492.867	-33.4535	-0.23489	0	-0.38973	-0.0403387	-2.09593	0.142262	-1.50872	190.66	27.4232	-0.214899	0	-0.755517	-0.0321012	4.0567	0.583488
